<svg width="127" height="39" viewBox="0 0 127 39" fill="none" xmlns="http://www.w3.org/2000/svg">
<g id="logo" clip-path="url(#clip0_8_597)">
<g id="Group">
<g id="Group 1">
<path id="Vector" d="M87.292 19.5V39H93.199H99.1059V19.5V0H93.199H87.292V19.5Z" fill="#391035"/>
</g>
<path id="Vector_2" d="M100.09 19.5V39H105.997H111.904V19.5V0H105.997H100.09V19.5Z" fill="#391035"/>
<path id="Vector_3" d="M113.217 19.5V39H119.124H125.031V19.5V0H119.124H113.217V19.5Z" fill="#391035"/>
<path id="Vector_4" d="M4.7584 4.87497C4.65995 5.03747 4.13488 5.19997 3.577 5.19997C3.05194 5.19997 2.62532 5.32997 2.62532 5.45997C2.62532 5.62247 2.26434 5.91497 1.83773 6.14247C0.0656331 7.08497 0 7.70247 0 21.4825V34.1575L2.23152 34.06L4.43023 33.9625L4.52868 28.015L4.59432 22.1H8.04005H11.4858V19.6625V17.225H8.04005H4.59432V14.1375C4.59432 11.2775 4.65995 10.9525 5.41473 10.2375C6.16951 9.45747 6.43204 9.42497 9.84496 9.42497H13.4548V6.98747V4.54997H9.22145C6.72739 4.54997 4.88966 4.67997 4.7584 4.87497Z" fill="#391035"/>
<path id="Vector_5" d="M15.4238 16.4125C15.4238 24.115 15.555 28.275 15.7519 28.275C15.9488 28.275 16.0801 28.7625 16.0801 29.38C16.0801 30.225 16.3754 30.7775 17.3928 31.8175C18.1147 32.5325 19.0992 33.215 19.5915 33.3125C20.1165 33.4425 20.7729 33.6375 21.0682 33.8325C21.3964 33.995 22.3809 34.125 23.2997 34.125H24.9406V32.0775C24.9406 29.7375 24.6124 29.25 23.07 29.25C22.3152 29.25 21.6917 28.99 21.1667 28.4375L20.3462 27.6575V16.0875V4.55H17.885H15.4238V16.4125Z" fill="#391035"/>
<path id="Vector_6" d="M48.6341 6.66254C47.6496 7.80004 47.6824 9.55504 48.7326 10.5625C50.078 11.9275 52.8346 11.505 52.8346 9.94504C52.8346 9.65254 52.9987 9.42504 53.1628 9.42504C53.6222 9.42504 53.5566 8.25504 53.0972 7.41004C52.3424 6.11004 51.9158 5.85004 50.6359 5.85004C49.6514 5.85004 49.1592 6.04504 48.6341 6.66254Z" fill="#391035"/>
<path id="Vector_7" d="M27.5659 15.7625V18.2H31.4383C36.4592 18.2 38.3954 18.785 38.3954 20.28C38.3954 20.5725 38.5595 20.8 38.7235 20.8C38.9204 20.8 39.0517 22.49 39.0517 25.2525V29.6725L35.606 29.4775C32.5212 29.315 32.0946 29.2175 31.3398 28.47C30.3225 27.4625 30.3225 27.1375 31.3398 26.1625C32.029 25.4475 32.4228 25.35 34.2933 25.35C35.4747 25.35 36.4264 25.48 36.4264 25.6425C36.4264 25.805 36.7545 26.065 37.1155 26.1625C38.0672 26.4875 38.3954 25.87 38.3954 23.725C38.3954 21.125 37.9031 20.8 33.9651 20.8C32.2587 20.8 30.7819 20.93 30.6835 21.125C30.585 21.2875 30.1912 21.45 29.8303 21.45C29.4693 21.45 28.5176 22.1 27.73 22.88C26.5158 24.05 26.2533 24.505 26.2533 25.48C26.2533 26.13 26.122 26.65 25.9251 26.65C25.761 26.65 25.5969 27.0075 25.5969 27.4625C25.5969 27.9175 25.761 28.275 25.9251 28.275C26.122 28.275 26.2533 28.795 26.2533 29.4125C26.2533 30.7125 27.5987 32.305 29.3708 33.1175C29.9287 33.345 30.6179 33.67 30.9132 33.8325C31.2414 33.995 34.162 34.125 37.4109 34.125H43.3179V26C43.3179 20.8 43.1866 17.875 42.9897 17.875C42.8256 17.875 42.6615 17.6475 42.6615 17.3875C42.6615 17.095 42.1365 16.38 41.5129 15.7625C40.8894 15.145 40.1675 14.625 39.8721 14.625C39.6096 14.625 39.3799 14.4625 39.3799 14.3C39.3799 14.105 38.9533 13.975 38.3954 13.975C37.8703 13.975 37.4109 13.8125 37.4109 13.65C37.4109 13.455 35.5403 13.325 32.4884 13.325H27.5659V15.7625Z" fill="#391035"/>
<path id="Vector_8" d="M46.5995 13.975C46.5995 14.3325 46.4682 14.625 46.2713 14.625C46.1072 14.625 45.9431 14.9175 45.9431 15.275C45.9431 15.6325 45.8119 15.925 45.615 15.925C45.4509 15.925 45.2868 16.445 45.2868 17.0625V18.2H46.9276H48.5685V26.1625V34.1575L50.9641 34.06L53.3269 33.9625V23.725V13.4875L49.9796 13.39C46.7635 13.2925 46.5995 13.325 46.5995 13.975Z" fill="#391035"/>
<path id="Vector_9" d="M73.8372 13.65C73.8372 13.8125 73.4106 13.975 72.8527 13.975C72.3277 13.975 71.8682 14.105 71.8682 14.3C71.8682 14.4625 71.6713 14.625 71.4416 14.625C70.7197 14.625 69.6367 15.99 69.0788 17.615C68.6522 18.85 68.5866 20.475 68.6522 26.5525L68.7507 33.9625L70.9822 34.06L73.1809 34.1575V27.1375C73.1809 22.685 73.3122 20.15 73.5091 20.15C73.706 20.15 73.8372 19.89 73.8372 19.565C73.8372 18.6225 75.2484 18.2 78.4316 18.2H81.385V15.7625V13.325H77.6111C75.314 13.325 73.8372 13.455 73.8372 13.65Z" fill="#391035"/>
<path id="Vector_10" d="M56.2475 21.905C56.1491 22.1325 56.1163 23.14 56.1819 24.0825L56.2804 25.8375L61.3997 25.935L66.5519 26L66.7488 24.8625C66.8801 24.245 66.8801 23.205 66.7488 22.5875L66.5519 21.45H61.4982C57.4946 21.45 56.3788 21.5475 56.2475 21.905Z" fill="#391035"/>
</g>
</g>
<defs>
<clipPath id="clip0_8_597">
<rect width="127" height="39" fill="white"/>
</clipPath>
</defs>
</svg>
