<svg width="127" height="39" viewBox="0 0 127 39" fill="none" xmlns="http://www.w3.org/2000/svg">
<g id="logo" clip-path="url(#clip0_11_1069)">
<g id="Group">
<g id="Group 1">
<path id="Vector" d="M87.292 19.5V39H93.199H99.1059V19.5V0H93.199H87.292V19.5Z" fill="white"/>
</g>
<path id="Vector_2" d="M100.09 19.5V39H105.997H111.904V19.5V0H105.997H100.09V19.5Z" fill="white"/>
<path id="Vector_3" d="M113.217 19.5V39H119.124H125.031V19.5V0H119.124H113.217V19.5Z" fill="white"/>
<path id="Vector_4" d="M4.7584 4.87522C4.65995 5.03772 4.13488 5.20022 3.577 5.20022C3.05194 5.20022 2.62532 5.33022 2.62532 5.46022C2.62532 5.62271 2.26434 5.91522 1.83773 6.14272C0.0656331 7.08522 0 7.70271 0 21.4827V34.1577L2.23152 34.0602L4.43023 33.9627L4.52868 28.0152L4.59432 22.1002H8.04005H11.4858V19.6627V17.2252H8.04005H4.59432V14.1377C4.59432 11.2777 4.65995 10.9527 5.41473 10.2377C6.16951 9.45772 6.43204 9.42522 9.84496 9.42522H13.4548V6.98772V4.55022H9.22145C6.72739 4.55022 4.88966 4.68022 4.7584 4.87522Z" fill="white"/>
<path id="Vector_5" d="M15.4238 16.4125C15.4238 24.115 15.555 28.275 15.7519 28.275C15.9488 28.275 16.0801 28.7625 16.0801 29.38C16.0801 30.225 16.3754 30.7775 17.3928 31.8175C18.1147 32.5325 19.0992 33.215 19.5915 33.3125C20.1165 33.4425 20.7729 33.6375 21.0682 33.8325C21.3964 33.995 22.3809 34.125 23.2997 34.125H24.9406V32.0775C24.9406 29.7375 24.6124 29.25 23.07 29.25C22.3152 29.25 21.6917 28.99 21.1667 28.4375L20.3462 27.6575V16.0875V4.55H17.885H15.4238V16.4125Z" fill="white"/>
<path id="Vector_6" d="M48.6341 6.66242C47.6496 7.79992 47.6824 9.55492 48.7326 10.5624C50.078 11.9274 52.8346 11.5049 52.8346 9.94492C52.8346 9.65242 52.9987 9.42492 53.1628 9.42492C53.6222 9.42492 53.5566 8.25492 53.0972 7.40992C52.3424 6.10992 51.9158 5.84992 50.6359 5.84992C49.6514 5.84992 49.1592 6.04492 48.6341 6.66242Z" fill="white"/>
<path id="Vector_7" d="M27.5659 15.7625V18.2H31.4383C36.4592 18.2 38.3954 18.785 38.3954 20.28C38.3954 20.5725 38.5595 20.8 38.7235 20.8C38.9204 20.8 39.0517 22.49 39.0517 25.2525V29.6725L35.606 29.4775C32.5212 29.315 32.0946 29.2175 31.3398 28.47C30.3225 27.4625 30.3225 27.1375 31.3398 26.1625C32.029 25.4475 32.4228 25.35 34.2933 25.35C35.4747 25.35 36.4264 25.48 36.4264 25.6425C36.4264 25.805 36.7545 26.065 37.1155 26.1625C38.0672 26.4875 38.3954 25.87 38.3954 23.725C38.3954 21.125 37.9031 20.8 33.9651 20.8C32.2587 20.8 30.7819 20.93 30.6835 21.125C30.585 21.2875 30.1912 21.45 29.8303 21.45C29.4693 21.45 28.5176 22.1 27.73 22.88C26.5158 24.05 26.2533 24.505 26.2533 25.48C26.2533 26.13 26.122 26.65 25.9251 26.65C25.761 26.65 25.5969 27.0075 25.5969 27.4625C25.5969 27.9175 25.761 28.275 25.9251 28.275C26.122 28.275 26.2533 28.795 26.2533 29.4125C26.2533 30.7125 27.5987 32.305 29.3708 33.1175C29.9287 33.345 30.6179 33.67 30.9132 33.8325C31.2414 33.995 34.162 34.125 37.4109 34.125H43.3179V26C43.3179 20.8 43.1866 17.875 42.9897 17.875C42.8256 17.875 42.6615 17.6475 42.6615 17.3875C42.6615 17.095 42.1365 16.38 41.5129 15.7625C40.8894 15.145 40.1675 14.625 39.8721 14.625C39.6096 14.625 39.3799 14.4625 39.3799 14.3C39.3799 14.105 38.9533 13.975 38.3954 13.975C37.8703 13.975 37.4109 13.8125 37.4109 13.65C37.4109 13.455 35.5403 13.325 32.4884 13.325H27.5659V15.7625Z" fill="white"/>
<path id="Vector_8" d="M46.5995 13.9752C46.5995 14.3327 46.4682 14.6252 46.2713 14.6252C46.1072 14.6252 45.9431 14.9177 45.9431 15.2752C45.9431 15.6327 45.8119 15.9252 45.615 15.9252C45.4509 15.9252 45.2868 16.4452 45.2868 17.0627V18.2002H46.9276H48.5685V26.1627V34.1577L50.9641 34.0602L53.3269 33.9627V23.7252V13.4877L49.9796 13.3902C46.7635 13.2927 46.5995 13.3252 46.5995 13.9752Z" fill="white"/>
<path id="Vector_9" d="M73.8372 13.6502C73.8372 13.8127 73.4106 13.9752 72.8527 13.9752C72.3277 13.9752 71.8682 14.1052 71.8682 14.3002C71.8682 14.4627 71.6713 14.6252 71.4416 14.6252C70.7197 14.6252 69.6367 15.9902 69.0788 17.6152C68.6522 18.8502 68.5866 20.4752 68.6522 26.5527L68.7507 33.9627L70.9822 34.0602L73.1809 34.1577V27.1377C73.1809 22.6852 73.3122 20.1502 73.5091 20.1502C73.706 20.1502 73.8372 19.8902 73.8372 19.5652C73.8372 18.6227 75.2484 18.2002 78.4316 18.2002H81.385V15.7627V13.3252H77.6111C75.314 13.3252 73.8372 13.4552 73.8372 13.6502Z" fill="white"/>
<path id="Vector_10" d="M56.2475 21.905C56.1491 22.1325 56.1163 23.14 56.1819 24.0825L56.2804 25.8375L61.3997 25.935L66.5519 26L66.7488 24.8625C66.8801 24.245 66.8801 23.205 66.7488 22.5875L66.5519 21.45H61.4982C57.4946 21.45 56.3788 21.5475 56.2475 21.905Z" fill="white"/>
</g>
</g>
<defs>
<clipPath id="clip0_11_1069">
<rect width="127" height="39" fill="white"/>
</clipPath>
</defs>
</svg>
